<mxfile host="65bd71144e">
    <diagram id="pMr54PqIm1fHqpYQUnXW" name="浏览器原理">
        <mxGraphModel dx="734" dy="430" grid="0" gridSize="10" guides="1" tooltips="1" connect="1" arrows="1" fold="1" page="1" pageScale="1" pageWidth="827" pageHeight="1169" math="0" shadow="0">
            <root>
                <mxCell id="0"/>
                <mxCell id="1" parent="0"/>
                <mxCell id="2" value="静态资源服务器" style="shape=cylinder3;whiteSpace=wrap;html=1;boundedLbl=1;backgroundOutline=1;size=15;" parent="1" vertex="1">
                    <mxGeometry x="12" y="94" width="90" height="130" as="geometry"/>
                </mxCell>
                <mxCell id="3" value="" style="endArrow=classic;html=1;startArrow=none;entryX=0;entryY=0.5;entryDx=0;entryDy=0;" parent="1" target="31" edge="1">
                    <mxGeometry width="50" height="50" relative="1" as="geometry">
                        <mxPoint x="102" y="175" as="sourcePoint"/>
                        <mxPoint x="302" y="175" as="targetPoint"/>
                    </mxGeometry>
                </mxCell>
                <mxCell id="4" value="输入地址：https://www.aaa.com" style="text;html=1;align=center;verticalAlign=middle;resizable=0;points=[];autosize=1;strokeColor=none;fillColor=none;" parent="1" vertex="1">
                    <mxGeometry x="112" y="149" width="190" height="20" as="geometry"/>
                </mxCell>
                <mxCell id="14" value="" style="strokeWidth=2;html=1;shape=mxgraph.flowchart.annotation_2;align=left;labelPosition=right;pointerEvents=1;" parent="1" vertex="1">
                    <mxGeometry x="400" y="113.35" width="83" height="129.43" as="geometry"/>
                </mxCell>
                <mxCell id="17" value="" style="endArrow=none;html=1;" parent="1" edge="1">
                    <mxGeometry width="50" height="50" relative="1" as="geometry">
                        <mxPoint x="102" y="175" as="sourcePoint"/>
                        <mxPoint x="102.97000000000025" y="174.93814352636275" as="targetPoint"/>
                    </mxGeometry>
                </mxCell>
                <mxCell id="22" value="" style="endArrow=classic;html=1;" parent="1" edge="1">
                    <mxGeometry width="50" height="50" relative="1" as="geometry">
                        <mxPoint x="601" y="112" as="sourcePoint"/>
                        <mxPoint x="641" y="112" as="targetPoint"/>
                    </mxGeometry>
                </mxCell>
                <mxCell id="23" value="" style="endArrow=classic;html=1;" parent="1" edge="1">
                    <mxGeometry width="50" height="50" relative="1" as="geometry">
                        <mxPoint x="602" y="240" as="sourcePoint"/>
                        <mxPoint x="642" y="240" as="targetPoint"/>
                    </mxGeometry>
                </mxCell>
                <mxCell id="29" value="遇到link标签css文件" style="rounded=0;whiteSpace=wrap;html=1;" parent="1" vertex="1">
                    <mxGeometry x="483" y="94" width="120" height="46" as="geometry"/>
                </mxCell>
                <mxCell id="30" value="遇到script标签js文件" style="rounded=0;whiteSpace=wrap;html=1;" parent="1" vertex="1">
                    <mxGeometry x="483" y="216.87" width="120" height="46" as="geometry"/>
                </mxCell>
                <mxCell id="31" value="index.html" style="rounded=0;whiteSpace=wrap;html=1;" parent="1" vertex="1">
                    <mxGeometry x="310" y="160" width="91" height="36.13" as="geometry"/>
                </mxCell>
                <mxCell id="32" value="xxx.css" style="rounded=0;whiteSpace=wrap;html=1;" parent="1" vertex="1">
                    <mxGeometry x="640" y="94" width="120" height="46" as="geometry"/>
                </mxCell>
                <mxCell id="33" value="xxx.js" style="rounded=0;whiteSpace=wrap;html=1;" parent="1" vertex="1">
                    <mxGeometry x="640" y="216.87" width="120" height="46" as="geometry"/>
                </mxCell>
                <mxCell id="34" value="" style="edgeStyle=elbowEdgeStyle;elbow=vertical;endArrow=classic;html=1;" parent="1" edge="1">
                    <mxGeometry width="50" height="50" relative="1" as="geometry">
                        <mxPoint x="112" y="175" as="sourcePoint"/>
                        <mxPoint x="700" y="89" as="targetPoint"/>
                        <Array as="points">
                            <mxPoint x="400" y="55"/>
                        </Array>
                    </mxGeometry>
                </mxCell>
                <mxCell id="35" value="下载CSS文件" style="edgeLabel;html=1;align=center;verticalAlign=middle;resizable=0;points=[];" parent="34" vertex="1" connectable="0">
                    <mxGeometry x="0.0898" y="3" relative="1" as="geometry">
                        <mxPoint as="offset"/>
                    </mxGeometry>
                </mxCell>
                <mxCell id="37" value="" style="edgeStyle=orthogonalEdgeStyle;elbow=horizontal;endArrow=classic;html=1;" parent="1" edge="1">
                    <mxGeometry width="50" height="50" relative="1" as="geometry">
                        <mxPoint x="112" y="174" as="sourcePoint"/>
                        <mxPoint x="700" y="267" as="targetPoint"/>
                        <Array as="points">
                            <mxPoint x="112" y="300"/>
                            <mxPoint x="700" y="300"/>
                        </Array>
                    </mxGeometry>
                </mxCell>
                <mxCell id="39" value="下载javascript文件" style="edgeLabel;html=1;align=center;verticalAlign=middle;resizable=0;points=[];" parent="37" vertex="1" connectable="0">
                    <mxGeometry x="0.0644" y="2" relative="1" as="geometry">
                        <mxPoint as="offset"/>
                    </mxGeometry>
                </mxCell>
            </root>
        </mxGraphModel>
    </diagram>
    <diagram id="64KRaqNHBxNECKbarieG" name="V8引擎原理">
        <mxGraphModel dx="1011" dy="430" grid="0" gridSize="10" guides="1" tooltips="1" connect="1" arrows="1" fold="1" page="0" pageScale="1" pageWidth="827" pageHeight="1169" math="0" shadow="0">
            <root>
                <mxCell id="B-isFA4M2zjf9I-SlAnX-0"/>
                <mxCell id="B-isFA4M2zjf9I-SlAnX-1" parent="B-isFA4M2zjf9I-SlAnX-0"/>
                <mxCell id="B-isFA4M2zjf9I-SlAnX-2" value="javascript源码" style="rounded=0;whiteSpace=wrap;html=1;" vertex="1" parent="B-isFA4M2zjf9I-SlAnX-1">
                    <mxGeometry x="10" y="57" width="120" height="60" as="geometry"/>
                </mxCell>
                <mxCell id="B-isFA4M2zjf9I-SlAnX-3" value="" style="endArrow=classic;html=1;" edge="1" parent="B-isFA4M2zjf9I-SlAnX-1">
                    <mxGeometry width="50" height="50" relative="1" as="geometry">
                        <mxPoint x="130" y="90.5" as="sourcePoint"/>
                        <mxPoint x="180" y="91" as="targetPoint"/>
                    </mxGeometry>
                </mxCell>
                <mxCell id="B-isFA4M2zjf9I-SlAnX-4" value="Parse" style="shape=parallelogram;perimeter=parallelogramPerimeter;whiteSpace=wrap;html=1;fixedSize=1;" vertex="1" parent="B-isFA4M2zjf9I-SlAnX-1">
                    <mxGeometry x="171" y="67" width="100" height="50" as="geometry"/>
                </mxCell>
                <mxCell id="B-isFA4M2zjf9I-SlAnX-5" value="" style="endArrow=classic;html=1;" edge="1" parent="B-isFA4M2zjf9I-SlAnX-1">
                    <mxGeometry width="50" height="50" relative="1" as="geometry">
                        <mxPoint x="263" y="90.5" as="sourcePoint"/>
                        <mxPoint x="319" y="91" as="targetPoint"/>
                    </mxGeometry>
                </mxCell>
                <mxCell id="B-isFA4M2zjf9I-SlAnX-6" value="抽象语法树AST" style="rounded=0;whiteSpace=wrap;html=1;" vertex="1" parent="B-isFA4M2zjf9I-SlAnX-1">
                    <mxGeometry x="321" y="57" width="120" height="60" as="geometry"/>
                </mxCell>
                <mxCell id="B-isFA4M2zjf9I-SlAnX-7" value="Ignition" style="shape=parallelogram;perimeter=parallelogramPerimeter;whiteSpace=wrap;html=1;fixedSize=1;" vertex="1" parent="B-isFA4M2zjf9I-SlAnX-1">
                    <mxGeometry x="524" y="66" width="100" height="50" as="geometry"/>
                </mxCell>
                <mxCell id="B-isFA4M2zjf9I-SlAnX-8" value="" style="endArrow=classic;html=1;" edge="1" parent="B-isFA4M2zjf9I-SlAnX-1">
                    <mxGeometry width="50" height="50" relative="1" as="geometry">
                        <mxPoint x="442" y="88.5" as="sourcePoint"/>
                        <mxPoint x="532" y="88.5" as="targetPoint"/>
                    </mxGeometry>
                </mxCell>
                <mxCell id="B-isFA4M2zjf9I-SlAnX-9" value="ByteCode字节码" style="rounded=0;whiteSpace=wrap;html=1;" vertex="1" parent="B-isFA4M2zjf9I-SlAnX-1">
                    <mxGeometry x="671" y="57" width="120" height="60" as="geometry"/>
                </mxCell>
                <mxCell id="B-isFA4M2zjf9I-SlAnX-10" value="" style="endArrow=classic;html=1;" edge="1" parent="B-isFA4M2zjf9I-SlAnX-1">
                    <mxGeometry width="50" height="50" relative="1" as="geometry">
                        <mxPoint x="614" y="88.5" as="sourcePoint"/>
                        <mxPoint x="671" y="88.5" as="targetPoint"/>
                    </mxGeometry>
                </mxCell>
                <mxCell id="B-isFA4M2zjf9I-SlAnX-11" value="" style="endArrow=classic;html=1;" edge="1" parent="B-isFA4M2zjf9I-SlAnX-1">
                    <mxGeometry width="50" height="50" relative="1" as="geometry">
                        <mxPoint x="791" y="88.5" as="sourcePoint"/>
                        <mxPoint x="871" y="88.5" as="targetPoint"/>
                    </mxGeometry>
                </mxCell>
                <mxCell id="B-isFA4M2zjf9I-SlAnX-12" value="运行结果" style="text;html=1;align=center;verticalAlign=middle;resizable=0;points=[];autosize=1;strokeColor=none;fillColor=none;" vertex="1" parent="B-isFA4M2zjf9I-SlAnX-1">
                    <mxGeometry x="791" y="69" width="60" height="20" as="geometry"/>
                </mxCell>
                <mxCell id="B-isFA4M2zjf9I-SlAnX-13" value="" style="endArrow=classic;html=1;" edge="1" parent="B-isFA4M2zjf9I-SlAnX-1">
                    <mxGeometry width="50" height="50" relative="1" as="geometry">
                        <mxPoint x="561" y="117" as="sourcePoint"/>
                        <mxPoint x="561" y="187" as="targetPoint"/>
                    </mxGeometry>
                </mxCell>
                <mxCell id="B-isFA4M2zjf9I-SlAnX-14" value="TurboFan" style="shape=parallelogram;perimeter=parallelogramPerimeter;whiteSpace=wrap;html=1;fixedSize=1;" vertex="1" parent="B-isFA4M2zjf9I-SlAnX-1">
                    <mxGeometry x="491" y="190" width="100" height="50" as="geometry"/>
                </mxCell>
                <mxCell id="B-isFA4M2zjf9I-SlAnX-15" value="" style="endArrow=classic;html=1;entryX=0.823;entryY=-0.013;entryDx=0;entryDy=0;entryPerimeter=0;exitX=0;exitY=0.75;exitDx=0;exitDy=0;" edge="1" parent="B-isFA4M2zjf9I-SlAnX-1" source="B-isFA4M2zjf9I-SlAnX-9">
                    <mxGeometry width="50" height="50" relative="1" as="geometry">
                        <mxPoint x="671" y="120" as="sourcePoint"/>
                        <mxPoint x="573.3" y="189.35000000000002" as="targetPoint"/>
                    </mxGeometry>
                </mxCell>
                <mxCell id="B-isFA4M2zjf9I-SlAnX-16" value="" style="endArrow=classic;html=1;" edge="1" parent="B-isFA4M2zjf9I-SlAnX-1">
                    <mxGeometry width="50" height="50" relative="1" as="geometry">
                        <mxPoint x="581" y="214.5" as="sourcePoint"/>
                        <mxPoint x="671" y="214.5" as="targetPoint"/>
                    </mxGeometry>
                </mxCell>
                <mxCell id="B-isFA4M2zjf9I-SlAnX-17" value="MachineCode优化的机器码" style="rounded=0;whiteSpace=wrap;html=1;" vertex="1" parent="B-isFA4M2zjf9I-SlAnX-1">
                    <mxGeometry x="671" y="180" width="120" height="60" as="geometry"/>
                </mxCell>
                <mxCell id="B-isFA4M2zjf9I-SlAnX-18" value="" style="endArrow=classic;html=1;" edge="1" parent="B-isFA4M2zjf9I-SlAnX-1">
                    <mxGeometry width="50" height="50" relative="1" as="geometry">
                        <mxPoint x="792" y="212.5" as="sourcePoint"/>
                        <mxPoint x="872" y="212.5" as="targetPoint"/>
                    </mxGeometry>
                </mxCell>
                <mxCell id="B-isFA4M2zjf9I-SlAnX-19" value="运行结果" style="text;html=1;align=center;verticalAlign=middle;resizable=0;points=[];autosize=1;strokeColor=none;fillColor=none;" vertex="1" parent="B-isFA4M2zjf9I-SlAnX-1">
                    <mxGeometry x="792" y="193" width="60" height="20" as="geometry"/>
                </mxCell>
                <mxCell id="B-isFA4M2zjf9I-SlAnX-20" value="" style="endArrow=classic;html=1;fillColor=#e51400;strokeColor=#FF0000;exitX=0.5;exitY=0;exitDx=0;exitDy=0;" edge="1" parent="B-isFA4M2zjf9I-SlAnX-1" source="B-isFA4M2zjf9I-SlAnX-17">
                    <mxGeometry width="50" height="50" relative="1" as="geometry">
                        <mxPoint x="730.5" y="176" as="sourcePoint"/>
                        <mxPoint x="731" y="117" as="targetPoint"/>
                        <Array as="points">
                            <mxPoint x="730.5" y="166"/>
                        </Array>
                    </mxGeometry>
                </mxCell>
                <mxCell id="B-isFA4M2zjf9I-SlAnX-21" value="Deoptimization" style="text;html=1;align=center;verticalAlign=middle;resizable=0;points=[];autosize=1;strokeColor=none;fillColor=none;" vertex="1" parent="B-isFA4M2zjf9I-SlAnX-1">
                    <mxGeometry x="731" y="137" width="89" height="18" as="geometry"/>
                </mxCell>
            </root>
        </mxGraphModel>
    </diagram>
    <diagram id="yaR8Mz--zg1dC8G6x-Nv" name="V8引擎原理分析">
        <mxGraphModel dx="1011" dy="430" grid="0" gridSize="10" guides="1" tooltips="1" connect="1" arrows="1" fold="1" page="0" pageScale="1" pageWidth="827" pageHeight="1169" math="0" shadow="0">
            <root>
                <mxCell id="lQ16psURsoLiZZo4-enY-0"/>
                <mxCell id="lQ16psURsoLiZZo4-enY-1" parent="lQ16psURsoLiZZo4-enY-0"/>
                <mxCell id="lQ16psURsoLiZZo4-enY-2" value="javascript源码" style="rounded=0;whiteSpace=wrap;html=1;" vertex="1" parent="lQ16psURsoLiZZo4-enY-1">
                    <mxGeometry x="10" y="57" width="120" height="60" as="geometry"/>
                </mxCell>
                <mxCell id="lQ16psURsoLiZZo4-enY-3" value="" style="endArrow=classic;html=1;" edge="1" parent="lQ16psURsoLiZZo4-enY-1">
                    <mxGeometry width="50" height="50" relative="1" as="geometry">
                        <mxPoint x="130" y="90.5" as="sourcePoint"/>
                        <mxPoint x="180" y="91" as="targetPoint"/>
                    </mxGeometry>
                </mxCell>
                <mxCell id="lQ16psURsoLiZZo4-enY-4" value="Parse" style="shape=parallelogram;perimeter=parallelogramPerimeter;whiteSpace=wrap;html=1;fixedSize=1;" vertex="1" parent="lQ16psURsoLiZZo4-enY-1">
                    <mxGeometry x="171" y="67" width="100" height="50" as="geometry"/>
                </mxCell>
                <mxCell id="lQ16psURsoLiZZo4-enY-5" value="" style="endArrow=classic;html=1;" edge="1" parent="lQ16psURsoLiZZo4-enY-1">
                    <mxGeometry width="50" height="50" relative="1" as="geometry">
                        <mxPoint x="263" y="90.5" as="sourcePoint"/>
                        <mxPoint x="319" y="91" as="targetPoint"/>
                    </mxGeometry>
                </mxCell>
                <mxCell id="lQ16psURsoLiZZo4-enY-6" value="抽象语法树AST" style="rounded=0;whiteSpace=wrap;html=1;" vertex="1" parent="lQ16psURsoLiZZo4-enY-1">
                    <mxGeometry x="321" y="57" width="120" height="60" as="geometry"/>
                </mxCell>
                <mxCell id="lQ16psURsoLiZZo4-enY-7" value="Ignition" style="shape=parallelogram;perimeter=parallelogramPerimeter;whiteSpace=wrap;html=1;fixedSize=1;" vertex="1" parent="lQ16psURsoLiZZo4-enY-1">
                    <mxGeometry x="524" y="66" width="100" height="50" as="geometry"/>
                </mxCell>
                <mxCell id="lQ16psURsoLiZZo4-enY-8" value="" style="endArrow=classic;html=1;" edge="1" parent="lQ16psURsoLiZZo4-enY-1">
                    <mxGeometry width="50" height="50" relative="1" as="geometry">
                        <mxPoint x="442" y="88.5" as="sourcePoint"/>
                        <mxPoint x="532" y="88.5" as="targetPoint"/>
                    </mxGeometry>
                </mxCell>
                <mxCell id="lQ16psURsoLiZZo4-enY-9" value="ByteCode字节码" style="rounded=0;whiteSpace=wrap;html=1;" vertex="1" parent="lQ16psURsoLiZZo4-enY-1">
                    <mxGeometry x="671" y="57" width="120" height="60" as="geometry"/>
                </mxCell>
                <mxCell id="lQ16psURsoLiZZo4-enY-10" value="" style="endArrow=classic;html=1;" edge="1" parent="lQ16psURsoLiZZo4-enY-1">
                    <mxGeometry width="50" height="50" relative="1" as="geometry">
                        <mxPoint x="614" y="88.5" as="sourcePoint"/>
                        <mxPoint x="671" y="88.5" as="targetPoint"/>
                    </mxGeometry>
                </mxCell>
                <mxCell id="lQ16psURsoLiZZo4-enY-11" value="" style="endArrow=classic;html=1;" edge="1" parent="lQ16psURsoLiZZo4-enY-1">
                    <mxGeometry width="50" height="50" relative="1" as="geometry">
                        <mxPoint x="791" y="88.5" as="sourcePoint"/>
                        <mxPoint x="871" y="88.5" as="targetPoint"/>
                    </mxGeometry>
                </mxCell>
                <mxCell id="lQ16psURsoLiZZo4-enY-12" value="运行结果" style="text;html=1;align=center;verticalAlign=middle;resizable=0;points=[];autosize=1;strokeColor=none;fillColor=none;" vertex="1" parent="lQ16psURsoLiZZo4-enY-1">
                    <mxGeometry x="791" y="69" width="60" height="20" as="geometry"/>
                </mxCell>
                <mxCell id="lQ16psURsoLiZZo4-enY-13" value="" style="endArrow=classic;html=1;" edge="1" parent="lQ16psURsoLiZZo4-enY-1">
                    <mxGeometry width="50" height="50" relative="1" as="geometry">
                        <mxPoint x="561" y="117" as="sourcePoint"/>
                        <mxPoint x="561" y="187" as="targetPoint"/>
                    </mxGeometry>
                </mxCell>
                <mxCell id="lQ16psURsoLiZZo4-enY-14" value="TurboFan" style="shape=parallelogram;perimeter=parallelogramPerimeter;whiteSpace=wrap;html=1;fixedSize=1;" vertex="1" parent="lQ16psURsoLiZZo4-enY-1">
                    <mxGeometry x="491" y="190" width="100" height="50" as="geometry"/>
                </mxCell>
                <mxCell id="lQ16psURsoLiZZo4-enY-15" value="" style="endArrow=classic;html=1;entryX=0.823;entryY=-0.013;entryDx=0;entryDy=0;entryPerimeter=0;exitX=0;exitY=0.75;exitDx=0;exitDy=0;" edge="1" parent="lQ16psURsoLiZZo4-enY-1" source="lQ16psURsoLiZZo4-enY-9">
                    <mxGeometry width="50" height="50" relative="1" as="geometry">
                        <mxPoint x="671" y="120" as="sourcePoint"/>
                        <mxPoint x="573.3" y="189.35000000000002" as="targetPoint"/>
                    </mxGeometry>
                </mxCell>
                <mxCell id="lQ16psURsoLiZZo4-enY-16" value="" style="endArrow=classic;html=1;" edge="1" parent="lQ16psURsoLiZZo4-enY-1">
                    <mxGeometry width="50" height="50" relative="1" as="geometry">
                        <mxPoint x="581" y="214.5" as="sourcePoint"/>
                        <mxPoint x="671" y="214.5" as="targetPoint"/>
                    </mxGeometry>
                </mxCell>
                <mxCell id="lQ16psURsoLiZZo4-enY-17" value="MachineCode优化的机器码" style="rounded=0;whiteSpace=wrap;html=1;" vertex="1" parent="lQ16psURsoLiZZo4-enY-1">
                    <mxGeometry x="671" y="180" width="120" height="60" as="geometry"/>
                </mxCell>
                <mxCell id="lQ16psURsoLiZZo4-enY-18" value="" style="endArrow=classic;html=1;" edge="1" parent="lQ16psURsoLiZZo4-enY-1">
                    <mxGeometry width="50" height="50" relative="1" as="geometry">
                        <mxPoint x="792" y="212.5" as="sourcePoint"/>
                        <mxPoint x="872" y="212.5" as="targetPoint"/>
                    </mxGeometry>
                </mxCell>
                <mxCell id="lQ16psURsoLiZZo4-enY-19" value="运行结果" style="text;html=1;align=center;verticalAlign=middle;resizable=0;points=[];autosize=1;strokeColor=none;fillColor=none;" vertex="1" parent="lQ16psURsoLiZZo4-enY-1">
                    <mxGeometry x="792" y="193" width="60" height="20" as="geometry"/>
                </mxCell>
                <mxCell id="lQ16psURsoLiZZo4-enY-20" value="" style="endArrow=classic;html=1;fillColor=#e51400;strokeColor=#FC0000;" edge="1" parent="lQ16psURsoLiZZo4-enY-1" target="lQ16psURsoLiZZo4-enY-9">
                    <mxGeometry width="50" height="50" relative="1" as="geometry">
                        <mxPoint x="730.5" y="180" as="sourcePoint"/>
                        <mxPoint x="730.5" y="120" as="targetPoint"/>
                        <Array as="points">
                            <mxPoint x="730.5" y="170"/>
                        </Array>
                    </mxGeometry>
                </mxCell>
                <mxCell id="lQ16psURsoLiZZo4-enY-21" value="Deoptimization" style="text;html=1;align=center;verticalAlign=middle;resizable=0;points=[];autosize=1;strokeColor=none;fillColor=none;" vertex="1" parent="lQ16psURsoLiZZo4-enY-1">
                    <mxGeometry x="731" y="137" width="89" height="18" as="geometry"/>
                </mxCell>
                <mxCell id="dO1TcQvGBDU4qWEV4HA_-0" value="" style="endArrow=none;dashed=1;html=1;strokeColor=#FC0000;fillColor=#2A0702;entryX=0.25;entryY=1;entryDx=0;entryDy=0;exitX=0.328;exitY=-0.185;exitDx=0;exitDy=0;exitPerimeter=0;" edge="1" parent="lQ16psURsoLiZZo4-enY-1" source="dO1TcQvGBDU4qWEV4HA_-1">
                    <mxGeometry width="50" height="50" relative="1" as="geometry">
                        <mxPoint x="235" y="210" as="sourcePoint"/>
                        <mxPoint x="235" y="117" as="targetPoint"/>
                    </mxGeometry>
                </mxCell>
                <mxCell id="dO1TcQvGBDU4qWEV4HA_-1" value="词法分析" style="text;html=1;align=center;verticalAlign=middle;resizable=0;points=[];autosize=1;strokeColor=none;fillColor=none;" vertex="1" parent="lQ16psURsoLiZZo4-enY-1">
                    <mxGeometry x="220" y="275" width="58" height="18" as="geometry"/>
                </mxCell>
                <mxCell id="dO1TcQvGBDU4qWEV4HA_-2" value="" style="endArrow=none;dashed=1;html=1;strokeColor=#FC0000;fillColor=#2A0702;entryX=0.25;entryY=1;entryDx=0;entryDy=0;" edge="1" parent="lQ16psURsoLiZZo4-enY-1">
                    <mxGeometry width="50" height="50" relative="1" as="geometry">
                        <mxPoint x="196" y="323" as="sourcePoint"/>
                        <mxPoint x="196" y="117" as="targetPoint"/>
                    </mxGeometry>
                </mxCell>
                <mxCell id="dO1TcQvGBDU4qWEV4HA_-3" value="语法分析" style="text;html=1;align=center;verticalAlign=middle;resizable=0;points=[];autosize=1;strokeColor=none;fillColor=none;" vertex="1" parent="lQ16psURsoLiZZo4-enY-1">
                    <mxGeometry x="177" y="327" width="58" height="18" as="geometry"/>
                </mxCell>
            </root>
        </mxGraphModel>
    </diagram>
</mxfile>